<mxfile host="app.diagrams.net" agent="Mozilla/5.0 (Windows NT 10.0; Win64; x64) AppleWebKit/537.36 (KHTML, like Gecko) Chrome/141.0.0.0 Safari/537.36" version="28.2.8">
  <diagram id="C5RBs43oDa-KdzZeNtuy" name="Analiza Vozila">
    <mxGraphModel dx="1601" dy="659" grid="1" gridSize="10" guides="1" tooltips="1" connect="1" arrows="1" fold="1" page="1" pageScale="1" pageWidth="827" pageHeight="1169" math="0" shadow="0">
      <root>
        <mxCell id="WIyWlLk6GJQsqaUBKTNV-0" />
        <mxCell id="WIyWlLk6GJQsqaUBKTNV-1" parent="WIyWlLk6GJQsqaUBKTNV-0" />
        <mxCell id="2aHauPdQgutvBFFEhC_7-30" value="Vozilo&#xa;&#xa;- proizvodjac: String&#xa;- boja: String&#xa;- godinaProizvodnje: int&#xa;- kubikaza: int&#xa;&#xa;+ get/set metode&#xa;+ Informacije(): void&#xa;+ izracunajCijenuRegistracije(): double" style="rounded=1;whiteSpace=wrap;html=1;fillColor=#dae8fc;strokeColor=#6c8ebf;" vertex="1" parent="WIyWlLk6GJQsqaUBKTNV-1">
          <mxGeometry x="120" y="180" width="250" height="220" as="geometry" />
        </mxCell>
        <mxCell id="2aHauPdQgutvBFFEhC_7-31" value="Automobil&#xa;&#xa;- brojVrata: int&#xa;- tipMotora: String&#xa;&#xa;+ get/set metode&#xa;+ Informacije(): void&#xa;+ izracunajCijenuRegistracije(): double" style="rounded=1;whiteSpace=wrap;html=1;fillColor=#d5e8d4;strokeColor=#82b366;" vertex="1" parent="WIyWlLk6GJQsqaUBKTNV-1">
          <mxGeometry x="480" y="80" width="250" height="200" as="geometry" />
        </mxCell>
        <mxCell id="2aHauPdQgutvBFFEhC_7-32" value="Kamion&#xa;&#xa;- kapacitetTereta: double&#xa;- imaPrikolicu: boolean&#xa;&#xa;+ get/set metode&#xa;+ Informacije(): void&#xa;+ izracunajCijenuRegistracije(): double" style="rounded=1;whiteSpace=wrap;html=1;fillColor=#f8cecc;strokeColor=#b85450;" vertex="1" parent="WIyWlLk6GJQsqaUBKTNV-1">
          <mxGeometry x="480" y="320" width="250" height="200" as="geometry" />
        </mxCell>
        <mxCell id="2aHauPdQgutvBFFEhC_7-33" value="Kombi&#xa;&#xa;- kapacitetPutnika: int&#xa;&#xa;+ get/set metode&#xa;+ Informacije(): void&#xa;+ izracunajCijenuRegistracije(): double" style="rounded=1;whiteSpace=wrap;html=1;fillColor=#fff2cc;strokeColor=#d6b656;" vertex="1" parent="WIyWlLk6GJQsqaUBKTNV-1">
          <mxGeometry x="480" y="560" width="250" height="160" as="geometry" />
        </mxCell>
        <mxCell id="2aHauPdQgutvBFFEhC_7-34" value="TestVozilo&#xa;&#xa;+ main(args: String[]): void&#xa;&#xa;// testira Automobil, Kamion i Kombi" style="rounded=1;whiteSpace=wrap;html=1;fillColor=#e1d5e7;strokeColor=#9673a6;" vertex="1" parent="WIyWlLk6GJQsqaUBKTNV-1">
          <mxGeometry x="120" y="460" width="250" height="140" as="geometry" />
        </mxCell>
        <mxCell id="2aHauPdQgutvBFFEhC_7-35" style="endArrow=block;endFill=0;strokeWidth=2;exitX=0;exitY=0.5;entryX=1;entryY=0.5;" edge="1" parent="WIyWlLk6GJQsqaUBKTNV-1" source="2aHauPdQgutvBFFEhC_7-31" target="2aHauPdQgutvBFFEhC_7-30">
          <mxGeometry relative="1" as="geometry" />
        </mxCell>
        <mxCell id="2aHauPdQgutvBFFEhC_7-36" style="endArrow=block;endFill=0;strokeWidth=2;exitX=0;exitY=0.5;entryX=1;entryY=0.5;" edge="1" parent="WIyWlLk6GJQsqaUBKTNV-1" source="2aHauPdQgutvBFFEhC_7-32" target="2aHauPdQgutvBFFEhC_7-30">
          <mxGeometry relative="1" as="geometry" />
        </mxCell>
        <mxCell id="2aHauPdQgutvBFFEhC_7-37" style="endArrow=block;endFill=0;strokeWidth=2;exitX=0;exitY=0.5;entryX=1;entryY=0.5;" edge="1" parent="WIyWlLk6GJQsqaUBKTNV-1" source="2aHauPdQgutvBFFEhC_7-33" target="2aHauPdQgutvBFFEhC_7-30">
          <mxGeometry relative="1" as="geometry" />
        </mxCell>
        <mxCell id="2aHauPdQgutvBFFEhC_7-38" style="endArrow=open;dashed=1;strokeWidth=2;exitX=1;exitY=0.5;entryX=0;entryY=0.5;" edge="1" parent="WIyWlLk6GJQsqaUBKTNV-1" source="2aHauPdQgutvBFFEhC_7-34" target="2aHauPdQgutvBFFEhC_7-31">
          <mxGeometry relative="1" as="geometry" />
        </mxCell>
        <mxCell id="2aHauPdQgutvBFFEhC_7-39" style="endArrow=open;dashed=1;strokeWidth=2;exitX=1;exitY=0.5;entryX=0;entryY=0.5;" edge="1" parent="WIyWlLk6GJQsqaUBKTNV-1" source="2aHauPdQgutvBFFEhC_7-34" target="2aHauPdQgutvBFFEhC_7-32">
          <mxGeometry relative="1" as="geometry" />
        </mxCell>
        <mxCell id="2aHauPdQgutvBFFEhC_7-40" style="endArrow=open;dashed=1;strokeWidth=2;exitX=1;exitY=0.5;entryX=0;entryY=0.5;" edge="1" parent="WIyWlLk6GJQsqaUBKTNV-1" source="2aHauPdQgutvBFFEhC_7-34" target="2aHauPdQgutvBFFEhC_7-33">
          <mxGeometry relative="1" as="geometry" />
        </mxCell>
      </root>
    </mxGraphModel>
  </diagram>
</mxfile>
